<?xml version="1.0" standalone="no"?>
<!DOCTYPE svg PUBLIC "-//W3C//DTD SVG 20010904//EN"
 "http://www.w3.org/TR/2001/REC-SVG-20010904/DTD/svg10.dtd">
<svg version="1.0" xmlns="http://www.w3.org/2000/svg"
 width="448.000000pt" height="250.000000pt" viewBox="0 0 448.000000 250.000000"
 preserveAspectRatio="xMidYMid meet">

<g transform="translate(0.000000,250.000000) scale(0.100000,-0.100000)"
fill="#000000" stroke="none">
<path d="M210 2175 c0 -22 3 -26 10 -15 5 8 12 11 16 7 4 -4 13 -2 21 5 7 6
17 8 20 4 4 -4 1 -11 -7 -16 -8 -6 -10 -10 -4 -10 5 0 15 5 22 12 9 9 12 9 12
-2 0 -13 2 -13 10 0 5 8 10 20 10 25 0 6 -5 3 -10 -5 -5 -8 -10 -10 -10 -3 0
6 -11 10 -25 8 -14 -1 -25 3 -25 9 0 6 -5 4 -10 -4 -9 -13 -11 -13 -20 0 -7
12 -10 8 -10 -15z"/>
<path d="M371 2186 c-11 -13 -11 -20 -3 -28 15 -15 24 -5 20 23 -3 21 -4 21
-17 5z"/>
<path d="M525 2191 c-3 -5 -1 -12 5 -16 6 -4 8 -11 5 -16 -4 -5 -1 -9 4 -9 6
0 11 7 11 15 0 8 -6 15 -12 15 -9 0 -8 4 2 10 9 6 10 10 3 10 -6 0 -14 -4 -18
-9z"/>
<path d="M660 2183 c0 -13 5 -23 10 -23 13 0 13 11 0 30 -8 12 -10 11 -10 -7z"/>
<path d="M847 2193 c-4 -3 -7 -13 -7 -22 1 -13 3 -13 11 2 11 19 8 33 -4 20z"/>
<path d="M872 2175 c0 -16 2 -22 5 -12 2 9 2 23 0 30 -3 6 -5 -1 -5 -18z"/>
<path d="M960 2182 c0 -11 4 -23 8 -26 10 -6 9 30 -1 40 -4 4 -7 -2 -7 -14z"/>
<path d="M1003 2184 c-8 -21 13 -42 28 -27 13 13 5 43 -11 43 -6 0 -13 -7 -17
-16z m27 -10 c0 -8 -5 -12 -10 -9 -6 4 -8 11 -5 16 9 14 15 11 15 -7z"/>
<path d="M1130 2176 c0 -21 4 -23 55 -22 51 0 55 2 55 24 0 13 -4 21 -10 17
-5 -3 -6 -13 -3 -23 6 -15 5 -15 -11 1 -10 10 -25 16 -32 13 -7 -3 -16 -1 -19
4 -12 19 -35 10 -35 -14z m32 -1 c0 -5 -5 -10 -11 -11 -8 -2 -7 -1 0 3 8 4 7
8 -2 15 -11 8 -11 9 -1 6 8 -2 14 -8 14 -13z m38 -5 c0 -5 -4 -10 -10 -10 -5
0 -10 5 -10 10 0 6 5 10 10 10 6 0 10 -4 10 -10z"/>
<path d="M1441 2186 c-11 -13 -11 -20 -3 -28 15 -15 24 -5 20 23 -3 21 -4 21
-17 5z"/>
<path d="M1488 2183 c-5 -19 -2 -23 18 -23 19 0 24 5 23 23 -1 16 -2 18 -6 5
-2 -10 -8 -18 -13 -18 -5 0 -10 8 -12 18 -3 14 -5 13 -10 -5z"/>
<path d="M1591 2186 c-11 -13 -11 -20 -3 -28 15 -15 24 -5 20 23 -3 21 -4 21
-17 5z"/>
<path d="M1712 2175 c0 -16 2 -22 5 -12 2 9 2 23 0 30 -3 6 -5 -1 -5 -18z"/>
<path d="M1744 2185 c-7 -17 3 -35 19 -34 9 0 9 2 0 6 -7 2 -13 11 -13 18 0 7
6 16 13 18 9 4 9 6 -1 6 -7 1 -15 -6 -18 -14z"/>
<path d="M1781 2172 c0 -24 1 -24 8 -7 l8 20 5 -20 c5 -19 6 -19 7 1 0 12 -6
24 -14 28 -11 4 -15 -2 -14 -22z"/>
<path d="M2672 2188 c-17 -17 -15 -38 3 -38 9 0 15 9 15 25 0 29 -1 30 -18 13z"/>
<path d="M2950 2178 c0 -16 5 -28 10 -28 13 0 13 20 0 40 -8 12 -10 9 -10 -12z"/>
<path d="M3101 2180 c-1 -24 2 -25 57 -26 60 -2 73 9 45 34 -10 10 -13 10 -13
-3 0 -10 -5 -13 -12 -9 -7 4 -8 3 -4 -4 4 -7 2 -12 -3 -12 -6 0 -11 4 -11 8 0
4 -10 9 -22 9 -18 2 -20 0 -8 -7 11 -7 11 -10 2 -10 -7 0 -17 10 -22 23 -9 22
-9 22 -9 -3z"/>
<path d="M3242 2175 c0 -16 2 -22 5 -12 2 9 2 23 0 30 -3 6 -5 -1 -5 -18z"/>
<path d="M3280 2178 c0 -16 5 -28 10 -28 13 0 13 20 0 40 -8 12 -10 9 -10 -12z"/>
<path d="M3446 2181 c-17 -19 -17 -21 -2 -27 22 -8 28 -1 24 26 l-3 22 -19
-21z m14 -11 c0 -5 -5 -10 -11 -10 -5 0 -7 5 -4 10 3 6 8 10 11 10 2 0 4 -4 4
-10z"/>
<path d="M3502 2175 c0 -16 2 -22 5 -12 2 9 2 23 0 30 -3 6 -5 -1 -5 -18z"/>
<path d="M3527 2193 c-4 -3 -7 -16 -6 -27 0 -19 1 -19 10 3 10 24 8 36 -4 24z"/>
<path d="M326 2174 c-4 -9 -4 -19 -1 -22 2 -3 7 3 11 12 4 9 4 19 1 22 -2 3
-7 -3 -11 -12z"/>
<path d="M404 2178 c-9 -15 7 -30 20 -19 9 7 16 7 24 -1 9 -9 12 -9 12 0 0 7
-1 15 -2 19 -4 10 -48 10 -54 1z"/>
<path d="M483 2170 c1 -11 5 -20 9 -20 3 0 6 9 5 20 -1 11 -5 20 -9 20 -3 0
-6 -9 -5 -20z"/>
<path d="M561 2168 c0 -22 1 -22 9 -3 l9 20 1 -20 1 -20 8 20 8 20 5 -20 c5
-18 6 -18 7 3 1 17 -4 22 -24 22 -19 0 -25 -5 -24 -22z"/>
<path d="M625 2180 c-4 -6 -3 -16 3 -22 6 -6 12 -6 17 2 4 6 3 16 -3 22 -6 6
-12 6 -17 -2z"/>
<path d="M715 2179 c-4 -6 -4 -13 -1 -16 3 -4 6 0 6 8 0 11 2 11 10 -1 8 -13
10 -12 10 3 0 19 -15 23 -25 6z"/>
<path d="M757 2183 c-4 -3 -7 -11 -7 -17 0 -6 5 -4 11 4 9 12 10 11 6 -7 -3
-13 -1 -23 4 -23 5 0 9 11 9 25 0 24 -10 32 -23 18z"/>
<path d="M807 2176 c-6 -15 1 -26 15 -26 4 0 8 9 8 20 0 23 -15 27 -23 6z"/>
<path d="M895 2180 c-4 -6 -3 -16 3 -22 6 -6 12 -6 17 2 4 6 3 16 -3 22 -6 6
-12 6 -17 -2z"/>
<path d="M934 2179 c-3 -6 -2 -15 3 -20 5 -5 9 -1 9 11 0 23 -2 24 -12 9z"/>
<path d="M1051 2173 c-1 -14 5 -23 14 -23 9 0 15 9 14 23 0 21 -1 21 -8 2 l-8
-20 -5 20 c-5 18 -6 18 -7 -2z"/>
<path d="M1090 2170 c0 -11 2 -20 4 -20 2 0 6 9 9 20 3 11 1 20 -4 20 -5 0 -9
-9 -9 -20z"/>
<path d="M1275 2180 c-4 -6 -3 -16 3 -22 6 -6 12 -6 17 2 4 6 3 16 -3 22 -6 6
-12 6 -17 -2z"/>
<path d="M1313 2170 c1 -11 5 -20 9 -20 3 0 6 9 5 20 -1 11 -5 20 -9 20 -3 0
-6 -9 -5 -20z"/>
<path d="M1365 2180 c3 -5 1 -10 -5 -10 -6 0 -8 -4 -5 -10 10 -17 25 -11 25
10 0 11 -5 20 -11 20 -5 0 -7 -4 -4 -10z"/>
<path d="M1395 2179 c-4 -6 -4 -13 -1 -16 3 -4 6 0 6 8 0 11 2 11 10 -1 8 -13
10 -12 10 3 0 19 -15 23 -25 6z"/>
<path d="M1545 2180 c-7 -12 2 -30 16 -30 5 0 9 9 9 20 0 21 -15 27 -25 10z"/>
<path d="M1622 2170 c0 -14 2 -19 5 -12 2 6 2 18 0 25 -3 6 -5 1 -5 -13z"/>
<path d="M1644 2179 c-3 -6 -2 -15 3 -20 5 -5 9 -1 9 11 0 23 -2 24 -12 9z"/>
<path d="M1676 2174 c-4 -9 -4 -19 -1 -22 3 -3 5 1 5 9 0 11 2 11 10 -1 8 -13
10 -13 10 2 0 23 -17 31 -24 12z"/>
<path d="M1826 2174 c-8 -22 1 -31 16 -16 9 9 9 15 1 23 -7 7 -12 5 -17 -7z"/>
<path d="M1861 2171 c0 -12 2 -12 6 -2 3 8 8 9 12 3 4 -6 10 -5 18 3 9 10 6
13 -13 13 -16 0 -24 -6 -23 -17z"/>
<path d="M1925 2180 c-4 -6 -3 -16 3 -22 6 -6 12 -6 17 2 4 6 3 16 -3 22 -6 6
-12 6 -17 -2z"/>
<path d="M1963 2170 c1 -21 12 -26 22 -10 3 6 1 10 -5 10 -6 0 -8 5 -5 10 3 6
2 10 -4 10 -5 0 -9 -9 -8 -20z"/>
<path d="M2511 2166 c0 -13 3 -16 6 -7 5 11 7 11 14 0 7 -11 9 -9 9 7 0 12 -6
21 -15 21 -9 0 -15 -9 -14 -21z"/>
<path d="M2555 2180 c-8 -13 3 -30 18 -29 9 0 9 2 0 6 -7 2 -13 9 -13 14 0 6
5 7 12 3 7 -4 8 -3 4 4 -9 15 -13 15 -21 2z"/>
<path d="M2707 2184 c-4 -4 -7 -13 -7 -21 0 -18 52 -12 58 7 3 8 -1 11 -10 7
-9 -3 -20 -1 -25 4 -5 5 -12 6 -16 3z"/>
<path d="M2915 2180 c-4 -6 -10 -8 -14 -6 -4 3 -8 -1 -8 -7 0 -7 11 -14 24
-15 14 -1 23 4 23 13 0 18 -17 28 -25 15z"/>
<path d="M3614 2176 c-8 -22 3 -33 18 -18 9 9 9 15 0 24 -9 9 -13 7 -18 -6z"/>
<path d="M3692 2170 c0 -14 2 -19 5 -12 2 6 2 18 0 25 -3 6 -5 1 -5 -13z"/>
<path d="M3856 2183 c-12 -12 -6 -33 9 -33 8 0 15 6 15 14 0 17 -14 28 -24 19z"/>
<path d="M3970 2179 c0 -5 5 -7 10 -4 6 3 10 8 10 11 0 2 -4 4 -10 4 -5 0 -10
-5 -10 -11z"/>
<path d="M2590 2169 c0 -4 5 -11 10 -14 6 -3 10 0 10 7 0 11 2 10 9 0 7 -11 9
-11 14 0 3 10 -3 14 -19 14 -13 0 -24 -3 -24 -7z"/>
<path d="M2780 2165 c7 -9 15 -13 17 -11 7 7 -7 26 -19 26 -6 0 -6 -6 2 -15z"/>
<path d="M2826 2166 c7 -19 34 -22 34 -3 0 8 4 7 10 -3 8 -13 10 -12 10 3 0 9
-7 17 -15 17 -8 0 -15 -5 -15 -11 0 -8 -5 -7 -15 1 -13 11 -14 10 -9 -4z"/>
<path d="M2998 2173 c6 -2 18 -2 25 0 6 3 1 5 -13 5 -14 0 -19 -2 -12 -5z"/>
<path d="M3041 2174 c-1 -6 6 -17 14 -24 13 -10 15 -9 15 11 0 17 -3 20 -9 10
-7 -11 -9 -11 -14 0 -3 8 -6 9 -6 3z"/>
<path d="M3261 2164 c0 -11 3 -14 6 -6 3 7 2 16 -1 19 -3 4 -6 -2 -5 -13z"/>
<path d="M3312 2169 c2 -6 8 -10 13 -10 5 0 11 4 13 10 2 6 -4 11 -13 11 -9 0
-15 -5 -13 -11z"/>
<path d="M3396 2173 c5 -5 12 -12 16 -18 4 -6 8 -2 8 8 0 9 -7 17 -17 17 -9 0
-12 -3 -7 -7z"/>
<path d="M3481 2164 c0 -11 3 -14 6 -6 3 7 2 16 -1 19 -3 4 -6 -2 -5 -13z"/>
<path d="M3550 2165 c0 -8 5 -15 10 -15 6 0 10 7 10 15 0 8 -4 15 -10 15 -5 0
-10 -7 -10 -15z"/>
<path d="M3580 2165 c0 -8 2 -15 4 -15 2 0 6 7 10 15 3 8 1 15 -4 15 -6 0 -10
-7 -10 -15z"/>
<path d="M3651 2164 c0 -11 3 -14 6 -6 3 7 2 16 -1 19 -3 4 -6 -2 -5 -13z"/>
<path d="M3671 2164 c0 -11 3 -14 6 -6 3 7 2 16 -1 19 -3 4 -6 -2 -5 -13z"/>
<path d="M3730 2165 c0 -8 2 -15 4 -15 2 0 6 7 10 15 3 8 1 15 -4 15 -6 0 -10
-7 -10 -15z"/>
<path d="M3760 2165 c0 -8 5 -15 10 -15 6 0 10 7 10 15 0 8 -4 15 -10 15 -5 0
-10 -7 -10 -15z"/>
<path d="M3790 2172 c0 -5 7 -15 15 -22 8 -7 15 -9 15 -6 0 4 -7 14 -15 22 -8
9 -15 11 -15 6z"/>
<path d="M3831 2164 c0 -11 3 -14 6 -6 3 7 2 16 -1 19 -3 4 -6 -2 -5 -13z"/>
<path d="M3891 2164 c0 -11 3 -14 6 -6 3 7 2 16 -1 19 -3 4 -6 -2 -5 -13z"/>
<path d="M3911 2164 c0 -11 3 -14 6 -6 3 7 2 16 -1 19 -3 4 -6 -2 -5 -13z"/>
<path d="M3936 2167 c3 -10 9 -15 12 -12 3 3 0 11 -7 18 -10 9 -11 8 -5 -6z"/>
<path d="M1901 2154 c0 -11 3 -14 6 -6 3 7 2 16 -1 19 -3 4 -6 -2 -5 -13z"/>
<path d="M3760 2050 c0 -13 7 -20 20 -20 13 0 20 7 20 20 0 13 -7 20 -20 20
-13 0 -20 -7 -20 -20z"/>
<path d="M1570 1930 c0 -5 5 -10 10 -10 6 0 10 5 10 10 0 6 -4 10 -10 10 -5 0
-10 -4 -10 -10z"/>
<path d="M865 1910 c4 -6 11 -8 16 -5 14 9 11 15 -7 15 -8 0 -12 -5 -9 -10z"/>
<path d="M1036 1891 c-4 -5 -2 -12 3 -15 5 -4 12 -2 15 3 4 5 2 12 -3 15 -5 4
-12 2 -15 -3z"/>
<path d="M3420 1680 l0 -210 205 0 205 0 0 209 0 210 -205 1 -205 1 0 -211z"/>
<path d="M1180 1870 c0 -5 5 -10 10 -10 6 0 10 5 10 10 0 6 -4 10 -10 10 -5 0
-10 -4 -10 -10z"/>
<path d="M1080 1836 c0 -9 5 -16 10 -16 6 0 10 4 10 9 0 6 -4 13 -10 16 -5 3
-10 -1 -10 -9z"/>
<path d="M2850 1623 l0 -208 210 3 210 3 0 204 0 205 -210 0 -210 0 0 -207z"/>
<path d="M3980 1623 l0 -208 205 0 205 0 0 208 0 207 -205 0 -205 0 0 -207z"/>
<path d="M965 1810 c-3 -5 1 -10 9 -10 9 0 16 5 16 10 0 6 -4 10 -9 10 -6 0
-13 -4 -16 -10z"/>
<path d="M2290 1625 l0 -195 205 0 205 0 0 195 0 195 -205 0 -205 0 0 -195z"/>
<path d="M1119 1803 c-1 -4 -1 -12 0 -17 3 -17 -22 -36 -40 -31 -13 4 -19 1
-19 -9 0 -9 -7 -16 -15 -16 -8 0 -15 9 -15 20 0 32 -25 23 -26 -10 -1 -17 3
-30 7 -30 5 0 9 -9 9 -20 0 -11 -4 -20 -10 -20 -5 0 -10 7 -10 15 0 8 -9 15
-19 15 -11 0 -23 5 -26 10 -3 6 -1 10 5 10 7 0 9 8 4 23 -9 31 -14 34 -25 17
-7 -10 -12 -11 -15 -4 -6 13 -44 7 -44 -7 0 -5 5 -9 10 -9 6 0 10 -5 10 -11 0
-6 -8 -8 -18 -5 -16 5 -19 1 -18 -26 1 -18 5 -39 10 -46 5 -9 1 -18 -10 -27
-15 -11 -19 -27 -19 -78 0 -36 -3 -68 -7 -72 -12 -12 -48 19 -42 37 4 13 -2
17 -28 20 -42 4 -34 23 10 23 22 1 32 -4 32 -14 0 -17 17 -4 22 17 5 20 -108
24 -124 4 -10 -11 -6 -19 20 -41 31 -25 42 -51 22 -51 -5 0 -10 7 -10 16 0 14
-55 45 -90 50 -8 2 -30 5 -49 8 -41 6 -70 -16 -51 -39 16 -19 5 -34 -20 -28
-11 3 -20 0 -20 -6 0 -6 4 -11 8 -11 5 0 17 -7 28 -16 18 -15 18 -15 -8 -10
-21 5 -28 2 -33 -15 -8 -25 -1 -34 17 -23 7 5 15 9 18 9 3 0 14 6 25 12 17 10
18 15 7 32 -17 29 2 26 25 -3 19 -25 73 -44 73 -26 0 6 8 10 18 8 9 -2 16 3
14 10 -3 18 15 15 22 -4 5 -12 14 -15 39 -10 17 3 39 7 47 9 45 7 55 24 52 85
-3 81 4 85 127 91 24 1 32 5 28 15 -9 23 5 27 20 6 16 -22 44 -20 74 7 14 12
17 12 23 -3 5 -12 10 -13 19 -6 7 6 23 9 35 5 13 -3 22 -1 22 6 0 6 -4 11 -10
11 -16 0 -11 17 7 24 11 4 22 1 29 -8 13 -18 54 -22 54 -6 0 6 -6 10 -12 9
-30 -4 -38 3 -38 31 0 17 -4 30 -10 30 -5 0 -10 -5 -10 -12 0 -9 -3 -9 -12 0
-19 19 -31 14 -25 -9 3 -12 0 -28 -9 -36 -12 -13 -14 -12 -14 1 0 9 -4 16 -10
16 -5 0 -10 7 -10 16 0 11 -6 14 -21 9 -16 -5 -20 -3 -17 6 3 8 17 13 32 12
17 -1 26 3 26 13 0 8 9 14 20 14 11 0 20 5 20 10 0 6 -8 10 -18 10 -10 0 -28
7 -40 16 -12 8 -23 12 -23 7z m-54 -93 c3 -6 -1 -7 -9 -4 -18 7 -21 14 -7 14
6 0 13 -4 16 -10z m-135 -8 c0 -13 -12 -22 -22 -16 -10 6 -1 24 13 24 5 0 9
-4 9 -8z m30 -29 c0 -10 -52 -34 -59 -28 -6 7 31 34 47 35 6 0 12 -3 12 -7z
m0 -43 c0 -5 -4 -10 -10 -10 -5 0 -10 5 -10 10 0 6 5 10 10 10 6 0 10 -4 10
-10z m-366 -116 c4 -10 1 -14 -6 -12 -15 5 -23 28 -10 28 5 0 13 -7 16 -16z
m110 -35 c-3 -5 -10 -7 -15 -3 -5 3 -7 10 -3 15 3 5 10 7 15 3 5 -3 7 -10 3
-15z m-84 -9 c0 -5 -2 -10 -4 -10 -3 0 -8 5 -11 10 -3 6 -1 10 4 10 6 0 11 -4
11 -10z"/>
<path d="M1278 1773 c-10 -2 -18 -9 -18 -15 0 -5 7 -8 15 -4 12 4 14 0 9 -19
-4 -15 -2 -25 5 -25 11 0 15 13 12 38 -2 16 15 15 43 -3 26 -17 56 -11 56 12
0 13 -3 13 -15 3 -12 -10 -15 -10 -15 4 0 19 -16 21 -24 4 -5 -10 -7 -10 -12
0 -6 12 -23 14 -56 5z"/>
<path d="M1420 1740 c0 -5 5 -10 10 -10 6 0 10 5 10 10 0 6 -4 10 -10 10 -5 0
-10 -4 -10 -10z"/>
<path d="M1520 1740 c0 -5 5 -10 10 -10 6 0 10 5 10 10 0 6 -4 10 -10 10 -5 0
-10 -4 -10 -10z"/>
<path d="M1575 1740 c3 -5 10 -10 16 -10 5 0 9 5 9 10 0 6 -7 10 -16 10 -8 0
-12 -4 -9 -10z"/>
<path d="M1785 1731 c-3 -5 -1 -12 5 -16 5 -3 10 1 10 9 0 18 -6 21 -15 7z"/>
<path d="M1340 1720 c0 -5 5 -10 10 -10 6 0 10 5 10 10 0 6 -4 10 -10 10 -5 0
-10 -4 -10 -10z"/>
<path d="M1490 1700 c0 -5 5 -10 10 -10 6 0 10 5 10 10 0 6 -4 10 -10 10 -5 0
-10 -4 -10 -10z"/>
<path d="M1365 1684 c-13 -10 -16 -17 -9 -24 7 -7 16 -4 28 9 21 23 8 34 -19
15z"/>
<path d="M1466 1681 c-4 -5 -2 -12 3 -15 5 -4 12 -2 15 3 4 5 2 12 -3 15 -5 4
-12 2 -15 -3z"/>
<path d="M690 1660 c0 -5 5 -10 10 -10 6 0 10 5 10 10 0 6 -4 10 -10 10 -5 0
-10 -4 -10 -10z"/>
<path d="M760 1660 c0 -5 5 -10 10 -10 6 0 10 5 10 10 0 6 -4 10 -10 10 -5 0
-10 -4 -10 -10z"/>
<path d="M560 1630 c0 -5 5 -10 10 -10 6 0 10 5 10 10 0 6 -4 10 -10 10 -5 0
-10 -4 -10 -10z"/>
<path d="M787 1618 c-6 -21 -2 -36 7 -27 10 11 16 49 8 49 -5 0 -12 -10 -15
-22z"/>
<path d="M340 1600 c0 -5 4 -10 9 -10 6 0 13 5 16 10 3 6 -1 10 -9 10 -9 0
-16 -4 -16 -10z"/>
<path d="M439 1503 c-1 -4 -2 -19 -2 -33 -2 -18 -7 -24 -19 -22 -10 2 -18 -2
-18 -8 0 -6 8 -13 18 -16 9 -3 25 -10 35 -15 23 -12 35 -3 19 13 -17 17 -15
24 9 47 12 11 16 21 10 25 -5 4 -12 2 -16 -4 -3 -5 -11 -10 -16 -10 -6 0 -8 4
-4 9 3 5 1 12 -5 16 -5 3 -10 3 -11 -2z"/>
<path d="M370 1460 c0 -5 5 -10 10 -10 6 0 10 5 10 10 0 6 -4 10 -10 10 -5 0
-10 -4 -10 -10z"/>
<path d="M356 1421 c-4 -5 -2 -12 3 -15 5 -4 12 -2 15 3 4 5 2 12 -3 15 -5 4
-12 2 -15 -3z"/>
<path d="M320 1406 c0 -17 14 -29 23 -20 8 8 -3 34 -14 34 -5 0 -9 -6 -9 -14z"/>
<path d="M4134 895 c0 -66 1 -92 3 -57 2 34 2 88 0 120 -2 31 -3 3 -3 -63z"/>
<path d="M3454 830 c0 -69 1 -97 3 -62 2 34 2 90 0 125 -2 34 -3 6 -3 -63z"/>
<path d="M1060 914 c0 -8 5 -12 10 -9 6 4 8 11 5 16 -9 14 -15 11 -15 -7z"/>
<path d="M4268 858 c4 -125 9 -137 10 -30 1 56 -1 102 -5 102 -5 0 -7 -33 -5
-72z"/>
<path d="M1000 910 c0 -5 5 -10 10 -10 6 0 10 5 10 10 0 6 -4 10 -10 10 -5 0
-10 -4 -10 -10z"/>
<path d="M740 880 c0 -5 5 -10 10 -10 6 0 10 5 10 10 0 6 -4 10 -10 10 -5 0
-10 -4 -10 -10z"/>
<path d="M3594 775 c0 -55 1 -76 3 -47 2 29 2 74 0 100 -2 26 -3 2 -3 -53z"/>
<path d="M3721 783 c2 -92 6 -82 11 25 2 34 0 62 -4 62 -5 0 -7 -39 -7 -87z"/>
<path d="M1160 850 c0 -5 5 -10 10 -10 6 0 10 5 10 10 0 6 -4 10 -10 10 -5 0
-10 -4 -10 -10z"/>
<path d="M860 820 c0 -5 5 -10 10 -10 6 0 10 5 10 10 0 6 -4 10 -10 10 -5 0
-10 -4 -10 -10z"/>
<path d="M1140 814 c0 -8 5 -12 10 -9 6 4 8 11 5 16 -9 14 -15 11 -15 -7z"/>
<path d="M3863 755 c0 -44 2 -61 4 -37 2 23 2 59 0 80 -2 20 -4 1 -4 -43z"/>
<path d="M4400 777 c0 -31 3 -57 8 -57 8 0 7 98 -2 107 -3 4 -6 -19 -6 -50z"/>
<path d="M660 785 c0 -8 10 -10 25 -7 29 5 25 15 -5 17 -11 1 -20 -4 -20 -10z"/>
<path d="M810 790 c0 -5 5 -10 10 -10 6 0 10 5 10 10 0 6 -4 10 -10 10 -5 0
-10 -4 -10 -10z"/>
<path d="M1176 791 c-4 -5 -2 -12 3 -15 5 -4 12 -2 15 3 4 5 2 12 -3 15 -5 4
-12 2 -15 -3z"/>
<path d="M966 771 c-4 -7 -5 -15 -2 -18 9 -9 19 4 14 18 -4 11 -6 11 -12 0z"/>
<path d="M700 760 c0 -5 4 -10 9 -10 6 0 13 5 16 10 3 6 -1 10 -9 10 -9 0 -16
-4 -16 -10z"/>
<path d="M775 750 c-3 -5 1 -10 9 -10 9 0 16 5 16 10 0 6 -4 10 -9 10 -6 0
-13 -4 -16 -10z"/>
<path d="M1103 753 c-13 -2 -23 -9 -23 -15 0 -5 7 -7 16 -4 12 4 14 1 9 -14
-4 -11 -2 -20 4 -20 6 0 11 7 11 15 0 9 7 18 15 21 8 4 15 10 15 15 0 9 -8 10
-47 2z"/>
<path d="M1320 750 c0 -5 5 -10 10 -10 6 0 10 5 10 10 0 6 -4 10 -10 10 -5 0
-10 -4 -10 -10z"/>
<path d="M570 730 c0 -5 5 -10 10 -10 6 0 10 5 10 10 0 6 -4 10 -10 10 -5 0
-10 -4 -10 -10z"/>
<path d="M650 719 c-20 -15 -22 -19 -7 -19 9 0 17 5 17 11 0 5 4 8 9 4 5 -3
12 -1 15 4 12 19 -10 19 -34 0z"/>
<path d="M920 724 c0 -11 5 -14 16 -10 9 3 20 6 25 6 6 0 7 5 4 10 -10 16 -45
12 -45 -6z"/>
<path d="M748 713 c-21 -5 -24 -25 -4 -21 8 2 21 -6 29 -16 9 -12 16 -15 20
-9 10 16 -25 51 -45 46z"/>
<path d="M967 706 c-18 -14 -22 -26 -9 -26 15 0 45 27 36 33 -5 3 -17 0 -27
-7z"/>
<path d="M1135 710 c4 -6 11 -8 16 -5 14 9 11 15 -7 15 -8 0 -12 -5 -9 -10z"/>
<path d="M687 697 c-2 -6 -5 -16 -5 -21 0 -5 -11 -14 -23 -20 -27 -13 -37 -36
-15 -36 9 0 16 5 16 10 0 6 6 10 13 10 15 0 39 58 27 65 -4 3 -10 -1 -13 -8z"/>
<path d="M600 684 c0 -8 5 -12 10 -9 6 3 10 10 10 16 0 5 -4 9 -10 9 -5 0 -10
-7 -10 -16z"/>
<path d="M855 681 c-3 -6 6 -13 20 -17 14 -3 25 -10 25 -15 0 -5 5 -9 10 -9
12 0 13 10 2 26 -10 17 -49 26 -57 15z"/>
<path d="M1185 680 c4 -6 11 -8 16 -5 14 9 11 15 -7 15 -8 0 -12 -5 -9 -10z"/>
<path d="M1340 670 c0 -5 5 -10 10 -10 6 0 10 5 10 10 0 6 -4 10 -10 10 -5 0
-10 -4 -10 -10z"/>
<path d="M1030 654 c0 -8 5 -12 10 -9 6 3 10 10 10 16 0 5 -4 9 -10 9 -5 0
-10 -7 -10 -16z"/>
<path d="M990 650 c0 -5 5 -10 10 -10 6 0 10 5 10 10 0 6 -4 10 -10 10 -5 0
-10 -4 -10 -10z"/>
<path d="M760 640 c0 -5 5 -10 10 -10 6 0 10 5 10 10 0 6 -4 10 -10 10 -5 0
-10 -4 -10 -10z"/>
<path d="M580 630 c0 -5 5 -10 10 -10 6 0 10 5 10 10 0 6 -4 10 -10 10 -5 0
-10 -4 -10 -10z"/>
<path d="M420 620 c0 -5 5 -10 10 -10 6 0 10 5 10 10 0 6 -4 10 -10 10 -5 0
-10 -4 -10 -10z"/>
<path d="M1160 610 c0 -11 7 -20 15 -20 8 0 17 0 20 0 3 0 4 3 3 8 -2 4 -6 6
-10 5 -5 -2 -8 4 -8 12 0 8 -4 15 -10 15 -5 0 -10 -9 -10 -20z"/>
<path d="M850 600 c0 -24 25 -27 34 -4 9 23 8 24 -14 24 -13 0 -20 -7 -20 -20z"/>
<path d="M994 594 c3 -9 6 -20 6 -25 0 -11 11 -11 29 0 12 8 12 12 -2 25 -20
21 -41 21 -33 0z"/>
<path d="M1261 594 c-18 -21 -6 -30 14 -11 8 9 15 18 15 21 0 11 -15 5 -29
-10z"/>
<path d="M770 581 c0 -19 23 -35 34 -24 7 8 -12 43 -24 43 -6 0 -10 -9 -10
-19z"/>
<path d="M877 566 c-18 -14 -22 -26 -9 -26 15 0 45 27 36 33 -5 3 -17 0 -27
-7z"/>
<path d="M958 566 c-23 -17 -23 -26 2 -26 13 0 20 7 20 20 0 23 0 23 -22 6z"/>
<path d="M1080 566 c0 -9 8 -12 25 -8 14 2 25 8 25 13 0 5 -11 9 -25 9 -14 0
-25 -6 -25 -14z"/>
<path d="M1215 570 c-3 -5 1 -10 10 -10 9 0 13 5 10 10 -3 6 -8 10 -10 10 -2
0 -7 -4 -10 -10z"/>
<path d="M3995 570 c3 -5 8 -10 11 -10 2 0 4 5 4 10 0 6 -5 10 -11 10 -5 0 -7
-4 -4 -10z"/>
<path d="M1316 551 c-4 -5 -2 -12 3 -15 5 -4 12 -2 15 3 4 5 2 12 -3 15 -5 4
-12 2 -15 -3z"/>
<path d="M620 540 c0 -5 5 -10 10 -10 6 0 10 5 10 10 0 6 -4 10 -10 10 -5 0
-10 -4 -10 -10z"/>
<path d="M4130 340 c0 -117 2 -211 5 -208 7 7 7 409 0 416 -3 3 -5 -91 -5
-208z"/>
<path d="M4400 405 c0 -80 3 -145 8 -145 4 0 7 65 7 145 0 80 -3 145 -7 145
-5 0 -8 -65 -8 -145z"/>
<path d="M888 532 c-29 -6 -20 -22 12 -22 17 0 30 4 30 9 0 12 -21 18 -42 13z"/>
<path d="M1010 530 c0 -5 5 -10 10 -10 6 0 10 5 10 10 0 6 -4 10 -10 10 -5 0
-10 -4 -10 -10z"/>
<path d="M3864 335 c0 -116 2 -161 3 -102 2 59 2 154 0 210 -1 56 -3 8 -3
-108z"/>
<path d="M845 511 c-3 -5 -1 -12 5 -16 5 -3 10 1 10 9 0 18 -6 21 -15 7z"/>
<path d="M940 510 c0 -5 5 -10 10 -10 6 0 10 5 10 10 0 6 -4 10 -10 10 -5 0
-10 -4 -10 -10z"/>
<path d="M1227 500 c3 -11 0 -20 -6 -20 -6 0 -11 5 -11 10 0 18 -22 10 -27
-10 -6 -21 -19 -27 -25 -10 -6 17 -81 19 -110 2 -28 -16 -54 -8 -28 9 13 8 13
10 0 19 -19 12 -40 13 -40 0 0 -10 -75 -35 -99 -33 -8 1 -21 -6 -28 -15 -11
-15 -12 -14 -13 12 0 21 -4 27 -16 22 -9 -3 -24 -6 -35 -6 -10 0 -19 -7 -19
-15 0 -8 -5 -15 -10 -15 -6 0 -10 7 -8 17 2 11 -7 19 -27 25 -24 6 -33 4 -47
-12 -9 -11 -26 -20 -37 -20 -12 0 -21 -4 -21 -10 0 -5 -14 -10 -31 -10 -25 0
-29 3 -20 14 9 10 8 16 -4 26 -22 19 -50 -12 -35 -40 9 -16 8 -20 -5 -20 -8 0
-15 -4 -15 -10 0 -5 5 -10 10 -10 6 0 10 -5 10 -10 0 -6 -13 -8 -30 -5 -17 3
-30 1 -30 -5 0 -5 -8 -10 -17 -10 -13 0 -14 -3 -5 -12 9 -9 7 -14 -6 -24 -16
-12 -15 -13 6 -14 20 0 23 -5 20 -29 -1 -16 4 -36 11 -45 11 -14 11 -16 -3
-16 -9 0 -16 -4 -16 -9 0 -6 37 -7 88 -5 48 3 119 5 157 3 39 -1 106 -1 150 0
101 2 108 2 180 -3 33 -2 65 0 72 6 7 6 19 4 33 -4 17 -11 22 -11 29 0 4 7 15
10 24 6 11 -4 17 -1 17 9 0 8 7 18 16 21 12 4 14 1 9 -14 -6 -17 -2 -20 29
-20 19 0 41 -3 50 -6 9 -3 16 -1 16 5 0 6 -7 11 -15 11 -8 0 -15 4 -15 9 0 5
-7 17 -16 25 -14 14 -13 18 6 38 20 22 22 22 34 6 7 -10 24 -18 36 -18 l24 0
-22 -20 c-23 -21 -30 -50 -12 -50 6 0 10 7 10 15 0 8 4 15 8 15 4 0 16 14 26
32 18 30 18 32 1 45 -22 16 -32 16 -40 3 -10 -16 -26 -12 -23 6 2 10 -3 19 -9
21 -7 3 -13 -2 -13 -11 0 -9 -5 -16 -11 -16 -7 0 -9 8 -4 23 4 12 7 30 8 39 2
20 17 13 17 -8 0 -21 17 -17 23 6 3 11 11 20 17 20 7 0 10 -7 6 -15 -3 -9 0
-15 8 -15 9 0 12 8 9 25 -4 20 -9 23 -33 19 -23 -5 -29 -2 -41 24 -11 25 -16
29 -28 19 -12 -10 -14 -8 -9 11 4 15 2 22 -8 22 -8 0 -14 5 -14 10 0 6 -6 10
-14 10 -9 0 -12 -7 -9 -20z m-497 -40 c0 -5 -4 -10 -9 -10 -6 0 -13 5 -16 10
-3 6 1 10 9 10 9 0 16 -4 16 -10z m370 0 c0 -5 -4 -10 -9 -10 -5 0 -18 -3 -28
-7 -16 -6 -16 -5 -4 10 15 19 41 23 41 7z m194 -25 c-7 -17 -39 -20 -49 -6 -3
5 5 12 17 14 13 2 26 5 30 6 4 0 5 -6 2 -14z m-694 -25 c0 -5 -4 -10 -10 -10
-5 0 -10 5 -10 10 0 6 5 10 10 10 6 0 10 -4 10 -10z m500 -32 c0 -20 -16 -32
-30 -23 -8 5 -8 11 0 20 8 9 8 15 0 20 -5 3 -10 10 -10 16 0 5 9 4 20 -3 11
-7 20 -20 20 -30z m142 1 c2 -27 -1 -43 -9 -46 -7 -3 -13 -11 -13 -19 0 -8 -5
-14 -10 -14 -7 0 -8 13 -4 35 7 39 -9 49 -21 13 -6 -20 -8 -20 -12 -6 -5 21
18 48 41 48 10 0 13 6 10 15 -4 8 -2 15 4 15 5 0 12 -19 14 -41z m-422 1 c0
-5 -4 -10 -10 -10 -5 0 -10 5 -10 10 0 6 5 10 10 10 6 0 10 -4 10 -10z m180 0
c0 -5 -4 -10 -10 -10 -5 0 -10 5 -10 10 0 6 5 10 10 10 6 0 10 -4 10 -10z
m-442 -28 c2 -7 -2 -10 -11 -6 -21 8 -33 -17 -13 -28 21 -12 21 -25 -1 -25
-23 0 -43 15 -43 34 0 35 57 57 68 25z m212 -6 c0 -3 -4 -8 -10 -11 -5 -3 -10
-1 -10 4 0 6 5 11 10 11 6 0 10 -2 10 -4z m380 -19 c0 -7 -6 -19 -12 -25 -10
-10 -10 -15 1 -21 16 -10 6 -31 -16 -31 -10 0 -13 5 -8 18 3 9 9 29 12 45 6
27 23 38 23 14z m-555 -7 c3 -5 -1 -10 -9 -10 -9 0 -16 5 -16 10 0 6 4 10 9
10 6 0 13 -4 16 -10z m505 -5 c0 -8 -4 -15 -10 -15 -5 0 -10 7 -10 15 0 8 5
15 10 15 6 0 10 -7 10 -15z m163 -10 c-10 -13 -21 -25 -25 -25 -10 0 3 33 16
42 22 15 26 7 9 -17z m-55 -34 c3 -8 -1 -12 -9 -9 -7 2 -15 10 -17 17 -3 8 1
12 9 9 7 -2 15 -10 17 -17z"/>
<path d="M1310 500 c0 -5 7 -10 16 -10 8 0 12 5 9 10 -3 6 -10 10 -16 10 -5 0
-9 -4 -9 -10z"/>
<path d="M4268 373 c-2 -76 0 -163 3 -193 3 -30 6 32 7 138 1 105 0 192 -2
192 -3 0 -6 -62 -8 -137z"/>
<path d="M890 490 c0 -5 5 -10 10 -10 6 0 10 5 10 10 0 6 -4 10 -10 10 -5 0
-10 -4 -10 -10z"/>
<path d="M3724 315 c0 -104 2 -146 3 -92 2 54 2 139 0 190 -1 51 -3 7 -3 -98z"/>
<path d="M595 480 c-3 -5 1 -10 9 -10 9 0 16 5 16 10 0 6 -4 10 -9 10 -6 0
-13 -4 -16 -10z"/>
<path d="M3454 305 c0 -99 2 -138 3 -87 2 51 2 132 0 180 -1 48 -3 6 -3 -93z"/>
<path d="M1320 460 c0 -5 5 -10 10 -10 6 0 10 5 10 10 0 6 -4 10 -10 10 -5 0
-10 -4 -10 -10z"/>
<path d="M410 435 c0 -14 5 -25 10 -25 6 0 10 11 10 25 0 14 -4 25 -10 25 -5
0 -10 -11 -10 -25z"/>
<path d="M1403 453 c-10 -3 -10 -10 -2 -24 5 -11 14 -17 20 -14 5 4 7 11 4 16
-4 5 -1 9 4 9 6 0 11 5 11 10 0 10 -16 12 -37 3z"/>
<path d="M1527 435 c-4 -8 -2 -17 3 -20 6 -4 10 -4 10 -1 0 2 3 11 6 20 3 9 2
16 -4 16 -5 0 -12 -7 -15 -15z"/>
<path d="M3594 290 c0 -91 2 -128 3 -82 2 45 2 119 0 165 -1 45 -3 8 -3 -83z"/>
<path d="M480 430 c0 -5 5 -10 10 -10 6 0 10 5 10 10 0 6 -4 10 -10 10 -5 0
-10 -4 -10 -10z"/>
<path d="M1445 420 c-3 -5 1 -10 9 -10 9 0 16 5 16 10 0 6 -4 10 -9 10 -6 0
-13 -4 -16 -10z"/>
<path d="M1620 420 c0 -5 5 -10 10 -10 6 0 10 5 10 10 0 6 -4 10 -10 10 -5 0
-10 -4 -10 -10z"/>
<path d="M397 394 c-4 -4 -4 -10 -1 -15 6 -10 34 0 34 12 0 10 -24 12 -33 3z"/>
<path d="M1565 390 c-3 -6 1 -13 10 -16 19 -8 30 0 20 15 -8 14 -22 14 -30 1z"/>
<path d="M1430 380 c-27 -9 -26 -10 5 -15 11 -1 28 -6 38 -10 20 -8 23 5 5 23
-13 13 -13 13 -48 2z"/>
<path d="M1500 380 c0 -5 5 -10 10 -10 6 0 10 5 10 10 0 6 -4 10 -10 10 -5 0
-10 -4 -10 -10z"/>
<path d="M1556 361 c-4 -5 -2 -12 3 -15 5 -4 12 -2 15 3 4 5 2 12 -3 15 -5 4
-12 2 -15 -3z"/>
<path d="M3990 340 c0 -5 5 -10 10 -10 6 0 10 5 10 10 0 6 -4 10 -10 10 -5 0
-10 -4 -10 -10z"/>
<path d="M350 330 c0 -5 9 -10 20 -10 11 0 20 5 20 10 0 6 -9 10 -20 10 -11 0
-20 -4 -20 -10z"/>
<path d="M1475 320 c4 -6 11 -8 16 -5 14 9 11 15 -7 15 -8 0 -12 -5 -9 -10z"/>
<path d="M1520 310 c0 -10 -8 -23 -17 -29 -17 -9 -17 -11 2 -25 11 -8 23 -16
28 -16 12 0 8 18 -5 23 -9 4 -10 8 -3 14 14 10 17 53 4 53 -5 0 -9 -9 -9 -20z"/>
<path d="M390 296 c0 -9 -3 -16 -7 -16 -5 0 -14 -4 -22 -9 -10 -7 -10 -12 5
-30 27 -31 46 -28 34 5 -13 33 -7 42 25 36 15 -2 25 0 25 7 0 6 -6 11 -14 11
-8 0 -21 3 -30 6 -11 4 -16 1 -16 -10z"/>
<path d="M1306 281 c-4 -5 -2 -12 3 -15 5 -4 12 -2 15 3 4 5 2 12 -3 15 -5 4
-12 2 -15 -3z"/>
<path d="M1430 274 c0 -8 5 -12 10 -9 6 3 10 10 10 16 0 5 -4 9 -10 9 -5 0
-10 -7 -10 -16z"/>
<path d="M1670 251 c0 -6 5 -13 10 -16 6 -3 10 1 10 9 0 9 -4 16 -10 16 -5 0
-10 -4 -10 -9z"/>
<path d="M310 230 c0 -5 7 -10 16 -10 8 0 12 5 9 10 -3 6 -10 10 -16 10 -5 0
-9 -4 -9 -10z"/>
<path d="M420 230 c0 -5 5 -10 10 -10 6 0 10 5 10 10 0 6 -4 10 -10 10 -5 0
-10 -4 -10 -10z"/>
<path d="M1380 220 c0 -5 5 -10 10 -10 6 0 10 5 10 10 0 6 -4 10 -10 10 -5 0
-10 -4 -10 -10z"/>
<path d="M1780 220 c0 -5 5 -10 10 -10 6 0 10 5 10 10 0 6 -4 10 -10 10 -5 0
-10 -4 -10 -10z"/>
</g>
</svg>
